<svg width="144" height="26" viewBox="0 0 144 26" fill="none" xmlns="http://www.w3.org/2000/svg">
<g clip-path="url(#clip0_12308_3139)">
<mask id="mask0_12308_3139" style="mask-type:luminance" maskUnits="userSpaceOnUse" x="0" y="0" width="39" height="26">
<path d="M38.4777 0H0V26H38.4777V0Z" fill="white"/>
</mask>
<g mask="url(#mask0_12308_3139)">
<path d="M11.6592 1.27051C11.7466 1.3296 11.8341 1.38869 11.9215 1.44778L16.0608 5.64323C16.2357 5.82051 16.3231 6.02733 16.3231 6.26369V25.6455C16.3231 25.8228 16.2065 25.941 16.0316 25.941C15.9442 25.941 15.8859 25.9114 15.8276 25.8523L11.9215 21.8932C11.7466 21.7455 11.6592 21.5091 11.6592 21.2728V1.27051Z" fill="url(#paint0_linear_12308_3139)"/>
<path d="M23.0569 1.44778C23.1152 1.38869 23.2026 1.3296 23.3192 1.27051V21.2728C23.3192 21.5091 23.2318 21.7455 23.0569 21.8932L19.1508 25.8523C19.0342 25.9705 18.8593 25.9705 18.7427 25.8523C18.6844 25.7932 18.6553 25.7341 18.6553 25.6455V6.26369C18.6553 6.02733 18.7427 5.82051 18.9176 5.64323L23.0569 1.44778Z" fill="url(#paint1_linear_12308_3139)"/>
<path d="M30.6068 16.841L30.3153 16.5455V12.4092H26.3509C26.2635 12.4092 26.2052 12.4387 26.1469 12.4978L23.3193 15.3637L32.3849 24.5524C32.5598 24.7296 32.7639 24.8183 32.9971 24.8183H37.7776C37.9525 24.8183 38.0691 24.6705 38.0691 24.5228C38.0691 24.4342 38.04 24.3751 37.9817 24.316L30.6068 16.841Z" fill="url(#paint2_linear_12308_3139)"/>
<path d="M23.6695 1.18164C23.4363 1.18164 23.2322 1.27028 23.0573 1.44755L18.9181 5.643C18.8598 5.73164 18.8015 5.79073 18.7432 5.90891H30.3156V16.5453L30.6071 16.8407L34.7173 12.6748C34.8922 12.4976 34.9796 12.2907 34.9796 12.0544V6.26346C34.9796 6.0271 34.8922 5.79073 34.7173 5.643L30.578 1.44755C30.4031 1.27028 30.199 1.18164 29.9658 1.18164H23.6695Z" fill="url(#paint3_linear_12308_3139)"/>
<path d="M11.9219 1.44755C11.747 1.27028 11.5429 1.18164 11.3097 1.18164H0.407709C0.23281 1.18164 0.116211 1.32937 0.116211 1.4771C0.116211 1.56573 0.145361 1.62482 0.20366 1.68391L4.10973 5.643C4.28463 5.82028 4.48868 5.90891 4.72188 5.90891H15.7405C16.0611 5.90891 16.3235 6.17482 16.3235 6.49982V6.26346C16.3235 6.0271 16.236 5.79073 16.0611 5.643L11.9219 1.44755Z" fill="url(#paint4_linear_12308_3139)"/>
<path d="M23.0569 1.44755C23.2318 1.27028 23.4358 1.18164 23.669 1.18164H29.9362C30.1694 1.18164 30.4026 1.27028 30.5484 1.44755L34.6877 5.643C34.8626 5.82028 34.95 6.0271 34.95 6.26346V6.49982C34.95 6.17482 34.6877 5.90891 34.367 5.90891H19.2383C18.9176 5.90891 18.6553 6.17482 18.6553 6.49982V6.26346C18.6553 6.0271 18.7427 5.79073 18.9176 5.643L23.0569 1.44755Z" fill="url(#paint5_linear_12308_3139)"/>
<path d="M34.9794 11.8184C34.9794 12.1434 34.717 12.4093 34.3964 12.4093H26.5842C26.4968 12.4093 26.4385 12.4684 26.4385 12.557C26.4385 12.5865 26.4676 12.6456 26.4676 12.6456L30.6069 16.8411L34.717 12.6752C34.8919 12.4979 34.9794 12.2911 34.9794 12.0547V11.8184Z" fill="url(#paint6_linear_12308_3139)"/>
</g>
<mask id="mask1_12308_3139" style="mask-type:luminance" maskUnits="userSpaceOnUse" x="41" y="3" width="103" height="20">
<path d="M144 3.5459H41.9756V22.455H144V3.5459Z" fill="white"/>
</mask>
<g mask="url(#mask1_12308_3139)">
<path d="M143.883 17.018C143.883 15.0089 142.746 14.2703 140.006 13.5612C138.345 13.1476 137.907 12.8226 137.907 12.2317C137.907 11.6408 138.432 11.2567 139.511 11.2567C140.706 11.2862 141.872 11.6112 142.921 12.2021L143.271 10.0748C142.076 9.57257 140.822 9.30666 139.54 9.33621C137.062 9.33621 135.605 10.6362 135.605 12.4385C135.605 14.3885 136.683 15.1271 139.277 15.7771C141.085 16.2203 141.58 16.4862 141.58 17.2839C141.58 17.993 140.881 18.4067 139.686 18.4067C138.286 18.3771 136.916 17.9339 135.75 17.1658L135.43 19.3226C136.741 19.9726 138.17 20.3271 139.598 20.3271C142.367 20.3271 143.883 19.0862 143.883 17.018Z" fill="#116BF2"/>
<path d="M134.089 20.0914V9.45508H131.524V16.6642C130.708 17.4914 129.804 18.0233 128.901 18.0233C127.851 18.0233 127.443 17.3733 127.443 16.4574V9.45508H124.878V17.1369C124.878 19.1164 125.956 20.2983 128.026 20.2983C129.484 20.2983 130.65 19.5301 131.67 18.6142L132.02 20.0914H134.089Z" fill="#116BF2"/>
<path d="M123.391 20.0914V9.45508H120.884V20.0914H123.391Z" fill="#116BF2"/>
<path d="M122.137 4.81641C122.953 4.81641 123.595 5.46641 123.595 6.29368C123.595 7.12095 122.953 7.77095 122.137 7.77095C121.321 7.77095 120.68 7.12095 120.68 6.29368C120.68 5.46641 121.321 4.81641 122.137 4.81641Z" fill="#116BF2"/>
<path d="M116.861 16.5455C116.103 17.4615 115.316 18.0524 114.267 18.0524C112.984 18.0524 112.052 17.0478 112.052 14.9796C112.052 12.6455 113.159 11.4933 114.646 11.4933C115.404 11.4637 116.162 11.641 116.861 11.966V16.5455ZM119.368 20.091V4.28418L116.861 4.72736V9.83872C116.045 9.57282 115.171 9.42509 114.296 9.45463C111.76 9.45463 109.516 11.1978 109.516 15.1274C109.516 18.6728 111.352 20.3274 113.655 20.3274C115.171 20.3274 116.22 19.5592 117.007 18.6433L117.24 20.1205L119.368 20.091Z" fill="#116BF2"/>
<path d="M105.93 17.196C105.202 17.9051 104.24 18.3483 103.249 18.3778C102.374 18.3778 101.82 17.8755 101.82 17.1369C101.82 16.1324 102.607 15.2165 105.93 14.8324V17.196ZM108.437 20.0915V12.8528C108.437 10.371 107.096 9.33691 104.327 9.33691C102.87 9.33691 101.412 9.63237 100.071 10.1937L100.363 12.2324C101.529 11.7006 102.753 11.4346 104.007 11.4051C105.231 11.4051 105.93 11.8483 105.93 12.971V13.296C101.471 13.7096 99.3135 14.8324 99.3135 17.3733C99.3135 19.2051 100.567 20.2983 102.432 20.2983C103.832 20.2983 105.143 19.7369 106.105 18.7324L106.339 20.0915H108.437Z" fill="#116BF2"/>
<path d="M98.9056 19.7365L94.8829 14.1524C96.7194 13.5615 97.9145 12.2615 97.9145 10.1933C97.9145 7.47509 95.9615 5.90918 92.755 5.90918H88.3242V20.091H90.9477V14.6251H92.2303L96.1655 20.2387L98.9056 19.7365ZM95.291 10.341C95.291 11.8183 94.1833 12.6455 92.4052 12.6455H90.9185V8.12509H92.5509C94.3582 8.12509 95.291 8.92282 95.291 10.341Z" fill="#116BF2"/>
<path d="M87.0123 20.0913L86.7208 17.964C86.4293 18.0231 86.1087 18.0526 85.8172 18.0526C84.7678 18.0526 84.3597 17.5799 84.3597 16.7231V11.5231H87.0123L86.5751 9.4549H84.3597V5.76172L81.8819 6.2049V9.4549H80.1621V11.5231H81.8819V17.1367C81.8819 19.5299 83.2811 20.2685 85.3508 20.2685C85.9046 20.2685 86.4585 20.2094 87.0123 20.0913Z" fill="#116BF2"/>
<path d="M79.6369 17.0183C79.6369 15.0092 78.5 14.2705 75.76 13.5615C74.0984 13.1478 73.6612 12.8228 73.6612 12.2319C73.6612 11.641 74.1859 11.2569 75.2644 11.2569C76.4596 11.2865 77.6255 11.6115 78.6749 12.2024L78.9956 10.0455C77.8004 9.54327 76.547 9.27737 75.2644 9.30691C72.7867 9.30691 71.3292 10.6069 71.3292 12.4092C71.3292 14.3592 72.4077 15.0978 75.0021 15.7478C76.8094 16.191 77.3049 16.4569 77.3049 17.2546C77.3049 17.9637 76.6053 18.3774 75.4102 18.3774C74.011 18.3478 72.6701 17.9046 71.5041 17.1365L71.1543 19.2933C72.466 19.9433 73.8944 20.2978 75.3519 20.2978C78.1211 20.3274 79.6369 19.0865 79.6369 17.0183Z" fill="#116BF2"/>
<path d="M69.9594 20.0914V9.45508H67.3942V16.6642C66.578 17.4914 65.6744 18.0233 64.7707 18.0233C63.7213 18.0233 63.3132 17.3733 63.3132 16.4574V9.45508H60.748V17.1369C60.748 19.1164 61.8266 20.2983 63.8962 20.2983C65.3537 20.2983 66.5197 19.5301 67.54 18.6142L67.8897 20.0914H69.9594Z" fill="#116BF2"/>
<path d="M59.611 11.818L59.028 9.30664C57.4247 9.6021 56.4628 10.4589 55.734 11.6703L55.2385 9.45437H53.3438V20.0907H55.8215V14.0339C56.6668 12.7339 58.066 11.9066 59.611 11.818Z" fill="#116BF2"/>
<path d="M54.9472 8.27282L54.3642 5.90918H41.9756V8.27282H46.6396V20.091H49.263V8.27282H54.9472Z" fill="#116BF2"/>
</g>
</g>
<defs>
<linearGradient id="paint0_linear_12308_3139" x1="13.991" y1="25.9513" x2="13.991" y2="1.13309" gradientUnits="userSpaceOnUse">
<stop offset="0.71" stop-color="#116BF2"/>
<stop offset="1" stop-color="#1E50E5"/>
</linearGradient>
<linearGradient id="paint1_linear_12308_3139" x1="20.9871" y1="25.9521" x2="20.9871" y2="1.13389" gradientUnits="userSpaceOnUse">
<stop offset="0.71" stop-color="#116BF2"/>
<stop offset="1" stop-color="#1E50E5"/>
</linearGradient>
<linearGradient id="paint2_linear_12308_3139" x1="25.8201" y1="12.8763" x2="37.3418" y2="24.2437" gradientUnits="userSpaceOnUse">
<stop offset="0.41" stop-color="#116BF2"/>
<stop offset="1" stop-color="#185DEC"/>
</linearGradient>
<linearGradient id="paint3_linear_12308_3139" x1="26.8584" y1="16.8232" x2="26.8584" y2="1.08143" gradientUnits="userSpaceOnUse">
<stop offset="0.58" stop-color="#116BF2"/>
<stop offset="1" stop-color="#1E50E5"/>
</linearGradient>
<linearGradient id="paint4_linear_12308_3139" x1="11.2168" y1="0.892065" x2="6.48999" y2="5.55561" gradientUnits="userSpaceOnUse">
<stop offset="0.03" stop-color="#59C5FF"/>
<stop offset="0.99" stop-color="#21B1FF"/>
</linearGradient>
<linearGradient id="paint5_linear_12308_3139" x1="22.6079" y1="1.93774" x2="27.3347" y2="6.60128" gradientUnits="userSpaceOnUse">
<stop offset="0.04" stop-color="#59C5FF"/>
<stop offset="0.99" stop-color="#21B1FF"/>
</linearGradient>
<linearGradient id="paint6_linear_12308_3139" x1="33.0016" y1="14.5407" x2="29.4565" y2="11.0431" gradientUnits="userSpaceOnUse">
<stop offset="0.04" stop-color="#57C4FF"/>
<stop offset="0.99" stop-color="#21B1FF"/>
</linearGradient>
<clipPath id="clip0_12308_3139">
<rect width="144" height="26" fill="white"/>
</clipPath>
</defs>
</svg>
